<svg id="Layer_1" data-name="Layer 1" xmlns="http://www.w3.org/2000/svg" viewBox="0 0 209.88 320.41"><defs><style>.cls-1{fill:#5e9d63;}.cls-2{fill:#f99645;}.cls-3{fill:#f2a9a5;}.cls-4{fill:#414258;}.cls-5{fill:#fff;}.cls-6{fill:#ef716f;}.cls-7{fill:#d76664;}.cls-8{fill:#ffc4be;}.cls-9{fill:#dd8c8a;}.cls-10{fill:#5e5e5e;}</style></defs><title>girl-2</title><circle class="cls-1" cx="177.4" cy="38.81" r="32.48"/><polygon class="cls-2" points="160.91 39.13 167.41 35.89 170.08 45.1 189.46 26.81 193.89 36.49 169.07 50.82 160.91 39.13"/><path class="cls-3" d="M176.33,169.67c8.94,17.84,10.26,21.57,17.63,39.33,6.82,16.42-4.59,27.34-8,26.67-13.27-2.67-21.62-33.79-33.24-48.77-5.77-7.43-17.55-47.44-.58-45.9C163,142,170.63,158.31,176.33,169.67Z" transform="translate(-42.29 -37.93)"/><path class="cls-4" d="M215.52,133,193,123.67a1.76,1.76,0,0,0-2.28,1L169.57,176a1.74,1.74,0,0,0,.94,2.28l22.58,9.28a1.75,1.75,0,0,0,2.28-.95l21.1-51.33A1.73,1.73,0,0,0,215.52,133Z" transform="translate(-42.29 -37.93)"/><path class="cls-5" d="M210.71,138.27a2.79,2.79,0,1,1-1.52-3.64A2.78,2.78,0,0,1,210.71,138.27Z" transform="translate(-42.29 -37.93)"/><path class="cls-5" d="M204.46,134.36a1.17,1.17,0,1,1-2.16-.89,1.17,1.17,0,1,1,2.16.89Z" transform="translate(-42.29 -37.93)"/><path class="cls-3" d="M210,163.78a78.17,78.17,0,0,0-6.32-10.4c-3.35-4.33-8.5-8-9.06-6.25.56,1.87,7.56,8.87,6.31,9.38-4.68-4.09-13.18-10.42-15.5-8.88-1.5,1.37,12.17,10.19,11.25,12.12-2.06.13-12.74-9.9-14.39-8-.52,2.13,11.51,10.25,11.51,11.88-1.27.62-10.5-5.38-12-3.63,0,2.13,5.73,3.51,12.4,8.75.64.51,3.54,5.51,4,6.2a4.9,4.9,0,0,1,.55,2.55,6.13,6.13,0,0,1-.12,1.19c-5.41,14.77-9.88,17.2-15.56,28-2.54,4.81-6.46,10.89-6.67,16.33s3.39,12.06,9.67,12.67c20.91,2,21-36.32,24.92-53.67C212.21,177.6,211.52,167.37,210,163.78Z" transform="translate(-42.29 -37.93)"/><path class="cls-6" d="M58.63,70.38A34.7,34.7,0,0,0,58,94.75c.91,2.78,3.25,6.38,1.91,11.89C58.13,114,51,114.5,49.13,123c-1.63,7.36.24,12,4.12,18.35s3.4,10.58,4.51,18.05c1.61,10.86-5.9,19.07-10.65,28.86C33.65,216,52.3,230.67,55.37,233c23.39,17.41,88.35,1.74,92-5.41,13.85-27.2-6.78-39.81-4.15-43.35,5.39-7.27,8.36-16.7,7-25.78-1.3-8.72-6.41-16.8-5.94-25.61.5-9.37,7.16-19.16,2.7-27.31-1-1.79-2.43-3.27-3.37-5.09-2.52-4.93-.71-10.89.16-16.4,1.49-9.37-2.51-22.38-9-30.47-6.92-8.61-15-6.82-15-6.82C109.62,35,94.86,36,81.43,43.9A52.89,52.89,0,0,0,58.63,70.38Z" transform="translate(-42.29 -37.93)"/><path class="cls-7" d="M51.15,195c-3.75,10.09-3.67,24.41,7.13,30.19.61.32,1.35-.51.77-1-9.08-7.6-9.94-18-6.22-28.74.36-1.06-1.29-1.49-1.68-.46Z" transform="translate(-42.29 -37.93)"/><path class="cls-7" d="M56.22,202.6c-.93,5.52.41,11.66,5.15,15.08.67.49,1.59-.47,1.13-1.14-2.89-4.26-5.26-8.46-5.17-13.79,0-.61-1-.79-1.11-.15Z" transform="translate(-42.29 -37.93)"/><path class="cls-1" d="M174.85,358.33c-42.17.27-84.93-4.63-124-20.73.44-21.86,4.86-36.42,6.49-41.1,5.66-16.2,19.79-39.06,17.92-48.17-5.6-27.33-15.87-49.09-18.16-57.11-4-13.88,5.42-29.22-1.4-43a62,62,0,0,1,19.56-5c11.29-1.09,49.88-3.17,61.09-3.17,5.17,0,12.36-.2,15.86,1-2.52,14.59-2.28,11.61-.66,27.72.71,7,8,16,9.15,25.74,2,17.21-4,24.36-6.93,34.54-7.05,24.87,9.63,55.55,11.75,62.75C175.16,324.51,175.3,340.24,174.85,358.33Z" transform="translate(-42.29 -37.93)"/><path class="cls-8" d="M46.26,170.4c2.24,8.48,10.79,21.77,18.62,31.23,7,8.49,13,15.94,21.36,23.16,8.13,7,16.23,15.43,26.89,16.91,4.12.58,9.31-.73,10.34-4.76.41-1.6-.15-3.24-.36-4.87-2.11-16.44-27.85-42.75-47.76-72.14-4.11-6.07-11.51-16.24-19.67-11.72A19.73,19.73,0,0,0,46.26,170.4Z" transform="translate(-42.29 -37.93)"/><path class="cls-8" d="M161.88,163.13c-.13-2.28-1.88-6.5-4.13-7.25-1.23-.42-.92-2.63-2.12-3.13-.65-.27-2.28-.22-2.91-.51-.24-1.48-1.62-2.15-5.22-2.24.37-1.44,6-15,4.69-16.39-2.65-2.74-10.6,16.69-11.56,19.64-1.3,5.84,2.24,13.58,6.81,18.22h0c.32,1.32-12,25.12-33.95,41.77-8.36,6.35-11.34,31.92,5.3,28,4-.94,9-4.2,11.83-7.2,7.61-8.12,12.8-17.18,17.37-27.33,3.63-8.05,11.88-32,11.88-32C161.69,167.81,162,166.09,161.88,163.13Z" transform="translate(-42.29 -37.93)"/><path class="cls-3" d="M88.88,136.29c-.62,1.33-8.31,5.22-13.64,6.89,1.45,8.33,11.64,29.32,24.64,34.2,10.35,3.88,22.4,3.93,29.25-4.75,5.51-7,7.81-24.51,7.2-32.62-6.42-1.24-8.2-2.51-14.45-5-1-.41-6.43-23.27-7.12-27.1-.06-.31-26.07-3.88-26-2C89.28,120.92,91.06,131.54,88.88,136.29Z" transform="translate(-42.29 -37.93)"/><path class="cls-8" d="M92.34,123.44c9.36,6.68,22.26,8.29,30.24,0,3.88-4,7.29-10.75,8.9-16.1,1.89-6.31,3.37-12.82,3.28-19.41C134.58,75.05,127.6,62,116,56.32s-27.29-2.57-34.48,8.13C70.32,81.2,76.09,111.83,92.34,123.44Z" transform="translate(-42.29 -37.93)"/><path class="cls-3" d="M98.69,98.72c0,1.4-1.94,2.53-4.33,2.53S90,100.12,90,98.72,92,96.2,94.36,96.2,98.69,97.33,98.69,98.72Z" transform="translate(-42.29 -37.93)"/><path class="cls-3" d="M126.48,99.5c0,1.4-1.94,2.52-4.33,2.52s-4.33-1.12-4.33-2.52S119.76,97,122.15,97,126.48,98.11,126.48,99.5Z" transform="translate(-42.29 -37.93)"/><path class="cls-6" d="M98.67,81.59a77.5,77.5,0,0,0,16.62-19.84c3.58,4.87,6.1,10,9.68,14.88,4,5.46,8.83,15.81,9.79,22.51,9.24-17.15,0-34.19-7-42.24-1.09-1.24-9.12-7-10.46-7a7.29,7.29,0,0,1-3.43-1.4C108,45,97.55,47.28,91.26,49.9,57.14,64.11,65.91,92.46,69.16,93.25c2.46.61,6.1-1.5,8.44-2.18C85.38,88.81,92.27,86.92,98.67,81.59Z" transform="translate(-42.29 -37.93)"/><path class="cls-8" d="M80.78,101.17c-.13-1.93-.26-3.85-.4-5.78l0-1.56a11.89,11.89,0,0,0-2.48-4.89,5.4,5.4,0,0,0-4-2.21,4.37,4.37,0,0,0-3.66,2.62A8.82,8.82,0,0,0,69.7,94a19.47,19.47,0,0,0,5.21,11.61,4.21,4.21,0,0,0,2.84,1.61A3.19,3.19,0,0,0,80.53,105,9.41,9.41,0,0,0,80.78,101.17Z" transform="translate(-42.29 -37.93)"/><path class="cls-9" d="M110,86.74c-3.17,6.14-.5,12.18,2.43,17.83l.39-1.48c-1.46,1-3.44.54-5,1.29-.69.34-.4,1.27.2,1.5a8,8,0,0,0,5.88-.92,1.11,1.11,0,0,0,.38-1.48c-2.62-4.89-5.42-10.43-3-16,.36-.85-.83-1.61-1.28-.75Z" transform="translate(-42.29 -37.93)"/><path class="cls-9" d="M98.1,109.55a14.75,14.75,0,0,0,6.64,3.89c2,.55,5,1.22,6.6-.27a.79.79,0,0,0-.16-1.22c-1.62-.82-3.68-.27-5.47-.65a14.89,14.89,0,0,1-6.27-3.09c-.92-.75-2.22.46-1.34,1.34Z" transform="translate(-42.29 -37.93)"/><path class="cls-9" d="M100.35,116.1a19.06,19.06,0,0,0,3.5,1.28c1,.25,2.32.73,3.2.07a.61.61,0,0,0,.12-.92c-.7-.77-1.89-.66-2.84-.86A17.9,17.9,0,0,1,101,114.6c-.85-.36-1.47,1.11-.63,1.5Z" transform="translate(-42.29 -37.93)"/><path class="cls-10" d="M95.37,79.61a9.16,9.16,0,0,1,4.86-3.21c2.06-.55,3.76,0,5.78.31a.7.7,0,0,0,.54-1.28c-3.88-2.81-9.79-.05-12.08,3.49-.35.53.49,1.21.9.69Z" transform="translate(-42.29 -37.93)"/><path class="cls-10" d="M115.75,78.39a8.08,8.08,0,0,1,4.9-1.55c1.46-.06,2.92.66,4.32.5a.72.72,0,0,0,.61-1.06c-.76-1.78-3.76-1.56-5.3-1.37a8.08,8.08,0,0,0-5.46,2.56.65.65,0,0,0,.93.92Z" transform="translate(-42.29 -37.93)"/><path class="cls-9" d="M77.6,91.94c-1.12-2-4.1-3.46-5.49-.91-1,1.92-.62,5-.06,7s2.49,5.59,4.84,5.94c.55.08,1.17-.47.8-1-1-1.43-2.43-2.33-3.31-3.89a10.55,10.55,0,0,1-1.19-6c.24-2.4,2.2-2.08,3.36-.41.44.63,1.45.07,1-.62Z" transform="translate(-42.29 -37.93)"/><path class="cls-10" d="M100.93,89.25c0,1.93-.82,3.5-1.85,3.5s-1.85-1.57-1.85-3.5.83-3.5,1.85-3.5S100.93,87.32,100.93,89.25Z" transform="translate(-42.29 -37.93)"/><path class="cls-10" d="M121.4,89.25c0,1.93-.83,3.5-1.85,3.5s-1.85-1.57-1.85-3.5.82-3.5,1.85-3.5S121.4,87.32,121.4,89.25Z" transform="translate(-42.29 -37.93)"/><path class="cls-9" d="M88.26,152.92a35.67,35.67,0,0,1,10.52.18c2.58.45,5.08,1.48,7.71,1.43a.6.6,0,0,0,.16-1.17,38.09,38.09,0,0,0-18.55-1.64c-.67.11-.52,1.28.16,1.2Z" transform="translate(-42.29 -37.93)"/><path class="cls-9" d="M115.22,153.78a38.55,38.55,0,0,1,7.35-1.52c2.24-.22,4.47,0,6.69-.18.78-.07,1.06-1.25.2-1.45-4.67-1.08-10.2.24-14.61,1.81-.82.3-.49,1.6.37,1.34Z" transform="translate(-42.29 -37.93)"/><path class="cls-7" d="M80.65,83.3a36.33,36.33,0,0,0,16-9c4.43-4.05,9.81-9.33,12-15,.19-.5-.52-.85-.87-.5-4,4.09-6.94,9.21-11.1,13.3-4.69,4.6-10,8.36-16.39,10.15a.56.56,0,0,0,.3,1.08Z" transform="translate(-42.29 -37.93)"/><path class="cls-7" d="M78.59,77.71C82.12,73,85.68,68.15,90,64.11c4.54-4.21,9.37-6.36,15.15-8.37.7-.25.65-1.45-.19-1.38-12.45,1-21,13.45-27.15,22.91-.31.48.42.87.75.44Z" transform="translate(-42.29 -37.93)"/><path class="cls-7" d="M70.42,71.5a47.44,47.44,0,0,1,32.73-23.32c.53-.11.35-.85-.13-.9-6.94-.67-14.73,3.95-20.1,8A48.83,48.83,0,0,0,69.45,70.93a.56.56,0,0,0,1,.57Z" transform="translate(-42.29 -37.93)"/><path class="cls-7" d="M66.62,66.08A39.26,39.26,0,0,1,80.76,49.67c5.4-3.54,16.53-8.89,23-5.42a.62.62,0,0,0,.63-1.07c-5.54-4-16.6.94-21.78,3.88A39.76,39.76,0,0,0,65.83,65.62c-.24.53.54,1,.79.46Z" transform="translate(-42.29 -37.93)"/><path class="cls-7" d="M119.31,60.06c7.42,5.06,9.77,15.13,15.92,21.47A.47.47,0,0,0,136,81c-2.56-4.64-5.73-9.09-8.51-13.63-2-3.31-4.26-6.13-7.67-8.08a.47.47,0,0,0-.47.81Z" transform="translate(-42.29 -37.93)"/><path class="cls-7" d="M121.55,55.17a23.13,23.13,0,0,1,8.47,6,24.18,24.18,0,0,1,2.9,4.06,19.27,19.27,0,0,0,2,3.59.49.49,0,0,0,.82-.34c.17-3.09-2.77-6.66-4.81-8.77a22.43,22.43,0,0,0-9.07-5.64c-.7-.24-.95.82-.3,1.08Z" transform="translate(-42.29 -37.93)"/><path class="cls-7" d="M123.25,51.17a45.66,45.66,0,0,1,4.13,2.09,18.42,18.42,0,0,0,3.74,2,.54.54,0,0,0,.52-.9c-1.82-2.1-5.43-3.18-8-4.11-.53-.19-.91.69-.39.93Z" transform="translate(-42.29 -37.93)"/><path class="cls-7" d="M63.81,96.4c2.67,5,4.94,10.4.73,15.34-2.08,2.43-4.71,3.9-6.12,6.9-2.07,4.39-1.64,10.71,2.23,14a.65.65,0,0,0,1-.78c-2.25-4.39-3.78-9.06-.93-13.6,1.88-3,5.41-4.6,7-7.81,2.53-5-.09-10.37-2.53-14.85-.5-.92-1.91-.1-1.41.83Z" transform="translate(-42.29 -37.93)"/><path class="cls-7" d="M72.88,111.11c-6.49,6-8,17.08-2.43,24.21.5.63,1.49,0,1.3-.75C69.43,126.42,67,119,73.83,112.05c.61-.61-.32-1.52-1-.94Z" transform="translate(-42.29 -37.93)"/><path class="cls-7" d="M77.93,119.78C75.8,124.53,75.35,131,79.26,135a.7.7,0,0,0,1.17-.68c-1.47-4.82-2.74-8.89-.93-13.87.33-.9-1.17-1.54-1.57-.66Z" transform="translate(-42.29 -37.93)"/><path class="cls-7" d="M137.48,107c1.76,2.53,3.27,5.37,2.72,8.63-.32,1.91-1.4,3.78-1.9,5.66a24.42,24.42,0,0,0-.87,9.9c.11.67,1,.41,1.09-.15a77.44,77.44,0,0,1,1-8.58c.56-2.42,1.8-4.68,2.26-7.1.64-3.39-.85-6.54-2.79-9.23-.65-.9-2.14,0-1.5.87Z" transform="translate(-42.29 -37.93)"/><path class="cls-7" d="M131.65,118.4c-2.48,4.32-4.55,11.33-1.85,16a.77.77,0,0,0,1.42-.39c.05-2.29-.63-4.51-.5-6.83a21.59,21.59,0,0,1,2.06-8.12c.35-.75-.71-1.41-1.13-.66Z" transform="translate(-42.29 -37.93)"/></svg>